PathFileType	4	(x/y/z)	TRC_MarkerData\Passive\Passive_Pref0007.trc
DataRate	CameraRate	NumFrames	NumMarkers	Units	OrigDataRate	OrigDataStartFrame	OrigNumFrames
240	240	7	50	mm	240	161	256
Frame#	Time	R_AC			L_AC			HEAD			STERN			L_IC			R_IC			L_ASIS			R_ASIS			L_GT			R_GT			L_PSIS			R_PSIS			SACRAL			L_LAT_KNEE			L_MED_KNEE			R_LAT_KNEE			R_MED_KNEE			L_LAT_ANK			L_MED_ANK			R_LAT_ANK			R_MED_ANK			L_THIGH_PROX_POST			L_THIGH_PROX_ANT			L_THIGH_DIST_ANT			L_THIGH_DIST_POST			R_THIGH_PROX_POST			R_THIGH_PROX_ANT			R_THIGH_DIST_ANT			R_THIGH_DIST_POST			L_SHANK_PROX_POST			L_SHANK_PROX_ANT			L_SHANK_DIST_ANT			L_SHANK_DIST_POST			R_SHANK_PROX_POST			R_SHANK_PROX_ANT			R_SHANK_DIST_ANT			R_SHANK_DIST_POST			L_HEEL_LAT			L_HEEL_SUP			L_HEEL_MED			R_HEEL_LAT			R_HEEL_SUP			R_HEEL_MED			L_1ST_MET			L_5TH_MET			L_TOE			R_1ST_MET			R_5TH_MET			R_TOE			C7			
		X1	Y1	Z1	X2	Y2	Z2	X3	Y3	Z3	X4	Y4	Z4	X5	Y5	Z5	X6	Y6	Z6	X7	Y7	Z7	X8	Y8	Z8	X9	Y9	Z9	X10	Y10	Z10	X11	Y11	Z11	X12	Y12	Z12	X13	Y13	Z13	X14	Y14	Z14	X15	Y15	Z15	X16	Y16	Z16	X17	Y17	Z17	X18	Y18	Z18	X19	Y19	Z19	X20	Y20	Z20	X21	Y21	Z21	X22	Y22	Z22	X23	Y23	Z23	X24	Y24	Z24	X25	Y25	Z25	X26	Y26	Z26	X27	Y27	Z27	X28	Y28	Z28	X29	Y29	Z29	X30	Y30	Z30	X31	Y31	Z31	X32	Y32	Z32	X33	Y33	Z33	X34	Y34	Z34	X35	Y35	Z35	X36	Y36	Z36	X37	Y37	Z37	X38	Y38	Z38	X39	Y39	Z39	X40	Y40	Z40	X41	Y41	Z41	X42	Y42	Z42	X43	Y43	Z43	X44	Y44	Z44	X45	Y45	Z45	X46	Y46	Z46	X47	Y47	Z47	X48	Y48	Z48	X49	Y49	Z49	X50	Y50	Z50	

161	0.66928	129.62	1463.8	424.1	204.42	1485.1	81.25	164.26	1759.2	258.03	204.68	1417.2	256.48	122.22	1036.3	87.452	122.5	1080.4	413.04	171.62	951.67	121.09	202.24	993.46	392.75	71.525	865.9	73.522	143.94	928.4	452.41	-2.1644	1031.9	202.13	2.36	1047.6	295.17	-14.546	1008.4	253.6	19.008	465.08	125.68	24.49	460.65	259.46	270.82	528.18	373.57	244.14	545.42	245.76	-327.98	232.11	177.96	-314.06	217.79	244.82	216.4	103.12	344.45	223.15	127.19	254.94	33.745	703.15	110.8	99.859	693.53	116.75	96.091	620.51	129.76	30.895	628.17	121.55	173.6	706.27	419.06	235.21	734.58	420.13	258.95	665.48	402.14	197.19	637.96	398.36	-58.734	426.61	136.67	-20.749	395.28	150.3	-72.348	367.91	160.96	-114.43	407.31	167.29	203.3	367.08	380.91	271.86	366.13	373.91	263.83	290.88	362.09	193.62	294.66	367.09	-428.23	248.71	209.74	-402.79	263.81	242.16	-416.01	233.8	272.63	147.84	37.989	315.27	143.4	69.04	284.28	158.19	46.28	248.77	-289.48	81.787	225.13	-339.71	115.88	135.05	-255.83	49.143	175.88	365.01	61.04	251.71	336.19	44.526	357.41	418.82	62.054	301.41	91.159	1533.1	234.16
162	0.67346	136.3	1464.8	424.04	210.23	1485.9	80.979	170.56	1760	258.27	210.95	1418.1	256.29	127.79	1037	87.704	128.81	1081.2	413.25	177.42	952.49	121.29	208.44	994.2	392.76	78.066	866.31	73.87	150.35	929.17	452.59	3.4528	1032.7	202.64	8.483	1048.5	295.74	-8.6158	1009.3	254.26	29.728	466.28	124.68	38.33	458.28	257.98	274.25	527.96	373.43	247.17	545.4	245.74	-319.14	236.38	178.81	-303.84	220.14	244.83	216.8	103.36	344.32	223.54	127.33	254.8	42.202	702.98	110.9	108.71	694.22	116.31	105.9	621.13	129.08	40.582	627.9	121.32	178.27	706.7	419.19	240.17	734.64	420.09	263.4	665.4	402.06	201.47	638.24	398.4	-48.253	428.47	136.43	-10.447	396.4	148.29	-62.141	369.37	159.44	-103.47	409.07	167.79	205.78	367.34	380.88	274.28	365.91	373.66	265.71	290.73	361.8	195.58	294.98	366.99	-418.38	253.39	213.45	-391.96	267.31	245.54	-404.91	236.69	275.48	147.98	38.297	315.3	143.58	69.284	284.26	158.27	46.451	248.78	-281.71	84.179	220.81	-333.64	121.52	133.11	-249.92	52.227	169.94	365.23	60.693	251.61	336.31	44.557	357.4	419.04	61.512	301.26	97.422	1533.8	234.1
163	0.67765	143.01	1465.7	423.96	215.98	1486.6	80.663	176.85	1760.8	258.49	217.19	1418.9	256.05	133.27	1037.7	87.952	135.13	1082.1	413.46	183.15	953.36	121.43	214.62	994.93	392.73	84.514	866.82	74.199	156.72	929.95	452.77	9.0498	1033.5	203.21	14.573	1049.4	296.35	-2.7174	1010.2	254.96	40.5	467.73	123.64	52.221	456.06	256.4	277.55	527.76	373.29	250.03	545.38	245.74	-309.96	240.56	179.62	-293.27	222.37	244.74	217.19	103.61	344.18	223.92	127.5	254.66	50.696	702.94	110.97	117.53	695.03	115.8	115.69	621.89	128.32	50.26	627.76	121.07	182.84	707.16	419.31	245.02	734.71	420.06	267.74	665.34	401.98	205.64	638.55	398.45	-37.657	430.49	136.16	-0.035002	397.74	146.2	-51.783	371	157.85	-92.348	410.91	168.28	208.15	367.58	380.84	276.6	365.7	373.42	267.51	290.59	361.51	197.47	295.29	366.91	-408.17	257.79	217.17	-380.78	270.53	248.89	-393.44	239.26	278.25	148.12	38.608	315.32	143.76	69.529	284.24	158.36	46.618	248.78	-273.54	86.623	216.32	-327.14	127.16	131.11	-243.57	55.526	163.84	365.44	60.372	251.51	336.43	44.593	357.39	419.25	61.007	301.12	103.67	1534.6	234.05
164	0.68183	149.75	1466.7	423.86	221.66	1487.4	80.304	183.14	1761.7	258.67	223.4	1419.8	255.76	138.67	1038.5	88.197	141.47	1083.1	413.66	188.83	954.27	121.52	220.77	995.66	392.67	90.865	867.42	74.508	163.04	930.73	452.93	14.642	1034.4	203.83	20.63	1050.3	297	3.1532	1011.1	255.71	51.332	469.42	122.59	66.13	454.01	254.71	280.73	527.56	373.17	252.75	545.36	245.77	-300.46	244.62	180.38	-282.37	224.46	244.52	217.57	103.86	344.05	224.29	127.67	254.51	59.235	703.03	111	126.3	695.99	115.23	125.46	622.79	127.49	59.921	627.76	120.8	187.29	707.64	419.43	249.78	734.8	420.03	271.98	665.28	401.91	209.7	638.87	398.52	-26.94	432.65	135.86	10.494	399.27	144.08	-41.272	372.77	156.22	-81.072	412.8	168.72	210.44	367.81	380.81	278.83	365.49	373.19	269.25	290.46	361.23	199.29	295.59	366.83	-397.6	261.91	220.83	-369.28	273.47	252.15	-381.63	241.53	280.91	148.26	38.923	315.33	143.94	69.775	284.21	158.44	46.784	248.79	-264.97	89.099	211.72	-320.22	132.77	129.07	-236.79	58.991	157.65	365.65	60.071	251.42	336.54	44.632	357.37	419.44	60.533	300.99	109.89	1535.5	234.01
165	0.68601	156.51	1467.8	423.75	227.28	1488.2	79.907	189.44	1762.5	258.83	229.57	1420.6	255.43	144	1039.3	88.44	147.82	1084	413.86	194.45	955.23	121.57	226.89	996.38	392.58	97.118	868.11	74.796	169.29	931.51	453.08	20.243	1035.2	204.51	26.655	1051.2	297.69	8.999	1012	256.48	62.235	471.3	121.51	80.031	452.17	252.93	283.79	527.39	373.06	255.36	545.35	245.82	-290.63	248.53	181.08	-271.16	226.42	244.19	217.93	104.12	343.91	224.65	127.86	254.36	67.819	703.26	111	135.02	697.07	114.6	135.19	623.83	126.59	69.558	627.9	120.52	191.65	708.14	419.55	254.44	734.9	420	276.11	665.24	401.85	213.66	639.21	398.61	-16.098	434.92	135.53	21.146	400.98	141.92	-30.605	374.66	154.56	-69.646	414.74	169.12	212.63	368.03	380.77	280.98	365.3	372.98	270.91	290.34	360.95	201.04	295.89	366.77	-386.71	265.72	224.38	-357.5	276.14	255.27	-369.52	243.52	283.41	148.39	39.242	315.34	144.11	70.025	284.17	158.53	46.949	248.79	-256.01	91.586	207.07	-312.84	138.26	127.02	-229.55	62.569	151.47	365.86	59.789	251.33	336.65	44.673	357.36	419.63	60.085	300.88	116.1	1536.4	233.97
166	0.6902	163.29	1468.8	423.63	232.84	1489	79.474	195.73	1763.5	258.95	235.71	1421.6	255.07	149.26	1040.1	88.679	154.17	1084.9	414.06	200.02	956.24	121.57	232.99	997.08	392.46	103.27	868.89	75.063	175.47	932.28	453.22	25.863	1036.1	205.24	32.649	1052.2	298.41	14.823	1013	257.29	73.216	473.35	120.42	93.894	450.55	251.08	286.75	527.22	372.96	257.89	545.36	245.89	-280.49	252.27	181.7	-259.66	228.26	243.74	218.29	104.38	343.77	225.01	128.06	254.2	76.445	703.61	110.94	143.68	698.29	113.92	144.89	625.02	125.62	79.167	628.18	120.22	195.91	708.66	419.67	259.01	735.02	419.97	280.14	665.21	401.79	217.52	639.58	398.72	-5.1263	437.27	135.15	31.929	402.83	139.76	-19.781	376.64	152.87	-58.076	416.7	169.44	214.74	368.25	380.75	283.03	365.13	372.78	272.51	290.24	360.67	202.73	296.19	366.72	-375.52	269.23	227.78	-345.45	278.54	258.22	-357.14	245.24	285.73	148.52	39.567	315.34	144.28	70.277	284.13	158.61	47.116	248.79	-246.66	94.062	202.44	-305	143.6	124.98	-221.84	66.202	145.37	366.06	59.522	251.25	336.76	44.716	357.34	419.82	59.659	300.77	122.29	1537.3	233.94
167	0.69438	170.08	1469.9	423.5	238.35	1489.8	79.01	202.01	1764.4	259.04	241.82	1422.5	254.66	154.47	1041	88.916	160.54	1085.9	414.25	205.55	957.3	121.53	239.07	997.78	392.31	109.33	869.76	75.311	181.57	933.05	453.35	31.509	1037	206	38.611	1053.2	299.16	20.628	1014	258.1	84.287	475.52	119.31	107.69	449.2	249.18	289.6	527.08	372.88	260.37	545.39	245.97	-270.05	255.8	182.23	-247.91	229.98	243.19	218.65	104.65	343.63	225.37	128.28	254.05	85.101	704.08	110.85	152.28	699.63	113.19	154.54	626.34	124.58	88.746	628.59	119.9	200.08	709.2	419.79	263.48	735.15	419.95	284.08	665.21	401.76	221.28	639.96	398.84	5.979	439.67	134.72	42.849	404.8	137.62	-8.7957	378.69	151.18	-46.37	418.67	169.67	216.76	368.46	380.73	285.01	364.97	372.6	274.05	290.16	360.41	204.35	296.49	366.68	-364.04	272.43	230.95	-333.18	280.69	260.94	-344.54	246.72	287.81	148.65	39.897	315.33	144.45	70.535	284.08	158.7	47.284	248.78	-236.92	96.5	197.89	-296.7	148.71	122.99	-213.66	69.832	139.45	366.25	59.268	251.18	336.87	44.76	357.33	420.01	59.252	300.67	128.47	1538.3	233.91
